<svg width="1200" height="1600" viewBox="0 0 360 427" fill="none" xmlns="http://www.w3.org/2000/svg">
  <path d="M289.019 8.90113C306.409 21.6839 311.035 43.7323 312.907 68.6289C313.374 74.835 313.669 81.1942 313.954 87.6095C313.975 88.0655 313.995 88.5218 314.015 88.9783C314.28 94.9396 314.546 100.943 314.944 106.887C315.801 119.682 317.272 132.267 320.678 143.719C324.897 157.904 331.596 170.888 338.179 183.648C339.858 186.902 341.529 190.141 343.149 193.382C351.15 209.38 357.958 225.481 358.729 243.896C360.512 286.533 353.792 331.205 330.082 364.192C305.084 398.973 267.517 426.309 228.102 425.997C209.412 425.849 194.139 414.884 179.122 401.356C175.522 398.112 171.948 394.733 168.35 391.33L167.911 390.915C164.167 387.376 160.396 383.817 156.556 380.383C148.878 373.517 140.894 367.12 132.229 362.324C118.859 354.924 103.891 351.058 89.2474 347.275C84.744 346.112 80.2713 344.957 75.8851 343.709C57.1523 338.38 39.8626 331.352 27.6002 314.984C0.76482 279.164 -6.79376 228.831 -3.13879 181.903C0.680956 132.859 13.6996 80.2442 48.1468 50.6283C64.6538 36.4365 84.5558 33.7796 105.723 33.8305C112.026 33.8456 118.384 34.0986 124.791 34.3535C129.177 34.528 133.587 34.7035 138.017 34.8041C148.865 35.0505 159.723 34.8415 170.256 33.0242C180.63 31.2342 191.145 27.2168 201.576 22.6375C205.701 20.8267 209.799 18.9352 213.873 17.0544C220.156 14.154 226.384 11.279 232.573 8.76436C252.95 0.485557 272.109 -3.52822 289.019 8.90113Z" fill="#51D66E" stroke="black" stroke-width="2"/>
</svg>