<?xml version="1.0" encoding="utf-8"?>

<!DOCTYPE svg PUBLIC "-//W3C//DTD SVG 1.1//EN" "http://www.w3.org/Graphics/SVG/1.1/DTD/svg11.dtd">
<!-- Uploaded to: SVG Repo, www.svgrepo.com, Generator: SVG Repo Mixer Tools -->
<svg height="800px" width="800px" version="1.1" id="_x32_" xmlns="http://www.w3.org/2000/svg" xmlns:xlink="http://www.w3.org/1999/xlink" 
	 viewBox="0 0 512 512"  xml:space="preserve">
<style type="text/css">
	.st0{fill:#000000;}
</style>
<g>
	<path class="st0" d="M137.769,423.274c5.7-0.579,9.852-5.666,9.281-11.373l-14.644-109.783c-0.572-5.7-5.666-9.852-11.366-9.272
		c-5.708,0.58-9.861,5.666-9.281,11.374l14.627,109.774C126.974,419.701,132.06,423.845,137.769,423.274z"/>
	<path class="st0" d="M196.851,423.307c5.733-0.286,10.138-5.153,9.844-10.878l-7.272-109.783
		c-0.286-5.724-5.162-10.13-10.878-9.844c-5.733,0.286-10.13,5.162-9.852,10.886l7.272,109.784
		C186.258,419.197,191.126,423.602,196.851,423.307z"/>
	<path class="st0" d="M385.606,413.993l14.636-109.774c0.572-5.708-3.581-10.794-9.282-11.374c-5.7-0.58-10.794,3.573-11.374,9.272
		l-14.636,109.783c-0.58,5.707,3.581,10.794,9.281,11.373C379.931,423.845,385.026,419.701,385.606,413.993z"/>
	<path class="st0" d="M326.028,413.473l7.263-109.784c0.286-5.724-4.119-10.6-9.836-10.886c-5.733-0.286-10.6,4.119-10.895,9.844
		l-7.263,109.783c-0.286,5.725,4.119,10.592,9.844,10.878C320.866,423.602,325.742,419.197,326.028,413.473z"/>
	<path class="st0" d="M256.42,424.409c5.734,0,10.374-4.649,10.374-10.374l-0.008-110.867c0-5.724-4.649-10.374-10.382-10.374
		c-5.725,0-10.374,4.65-10.374,10.374l0.008,110.867C246.038,419.76,250.687,424.409,256.42,424.409z"/>
	<polygon class="st0" points="424.016,450.68 87.976,450.68 60.814,252.467 24.237,252.467 55.653,487.006 456.347,487.006 
		487.755,252.467 451.186,252.467 	"/>
	<path class="st0" d="M404.848,167.711L337.722,37.635c-5.91-11.459-20-15.947-31.458-10.038
		c-11.458,5.91-15.964,19.999-10.046,31.458l56.073,108.656H159.693l56.09-108.656c5.901-11.459,1.412-25.548-10.054-31.458
		c-11.45-5.91-25.54-1.421-31.458,10.038l-67.127,130.076H0v69.188h512v-69.188H404.848z"/>
</g>
</svg>